<?xml version="1.0" encoding="utf-8"?>
<!-- Generator: Adobe Illustrator 26.0.3, SVG Export Plug-In . SVG Version: 6.00 Build 0)  -->
<svg version="1.1" id="Layer_1" xmlns="http://www.w3.org/2000/svg" xmlns:xlink="http://www.w3.org/1999/xlink" x="0px" y="0px"
	 viewBox="0 0 114.4 56.7" style="enable-background:new 0 0 114.4 56.7;" xml:space="preserve">
<g>
	<path d="M14.2,48.1c0.3,0,0.5,0.1,0.5,0.4c0,0.2-0.1,0.3-0.4,0.4c-0.5,0.2-0.8,0.5-0.8,1c0,0.4,0.1,0.7,0.4,0.9
		c0.3,0.2,0.6,0.3,1,0.3c0.8,0,1.5-0.2,2-0.7c0.4-0.3,0.5-0.7,0.5-1.1c0-0.3-0.1-0.5-0.2-0.7s-0.3-0.5-0.5-0.8
		c-0.4-0.5-0.6-1-0.9-1.4c-0.3-0.5-0.4-1-0.4-1.4c0-1.1,0.5-2.1,1.6-3.1c0.6-0.5,1.2-0.9,1.9-1.2c0.6-0.3,1.1-0.4,1.7-0.4
		c0.3,0,0.6,0.1,0.9,0.3s0.4,0.5,0.4,0.9c0,0.6-0.3,1.2-0.9,1.9c-0.6,0.6-1.3,1.2-2.1,1.6c-0.4,0.2-0.7,0.3-0.9,0.3
		c-0.1,0-0.3-0.1-0.4-0.2c-0.1-0.1-0.1-0.2-0.1-0.3c0-0.2,0.2-0.4,0.6-0.5c0.7-0.3,1.3-0.6,1.9-1.1c0.7-0.6,1.1-1.1,1.1-1.5
		c0-0.2-0.1-0.3-0.2-0.4c-0.1-0.1-0.2-0.1-0.4-0.1c-0.4,0-0.9,0.2-1.5,0.5c-0.8,0.4-1.5,1-1.9,1.6s-0.6,1.1-0.6,1.7
		c0,0.4,0.1,0.8,0.3,1.2c0.2,0.3,0.4,0.7,0.7,1.1c0.3,0.4,0.5,0.8,0.7,1.1c0.2,0.4,0.3,0.8,0.3,1.2c0,0.7-0.4,1.3-1.2,1.8
		c-0.7,0.4-1.4,0.7-2.3,0.7c-0.8,0-1.5-0.2-2-0.7c-0.4-0.4-0.5-0.8-0.5-1.2c0-0.5,0.2-0.9,0.5-1.3c0.2-0.2,0.4-0.4,0.7-0.5
		C13.9,48.2,14.1,48.1,14.2,48.1z"/>
	<path d="M28.2,45.8c0.5,0,0.7,0.3,0.7,0.9c0,0.8-0.4,1.8-1.1,3c-0.8,1.3-1.5,1.9-2.3,1.9c-0.3,0-0.6-0.2-0.7-0.5
		c-0.1-0.2-0.1-0.3-0.1-0.6c0-0.8,0.3-1.6,0.8-2.4c0.5-0.8,1-1.4,1.7-1.9C27.6,46,27.9,45.8,28.2,45.8z M27.3,49.2
		c-0.1-0.1-0.2-0.2-0.2-0.3c0,0,0.1-0.2,0.3-0.4c0.5-0.6,0.8-1.1,0.8-1.4V47c0-0.1-0.1-0.1-0.2-0.1c-0.2,0-0.5,0.2-0.8,0.5
		c-0.5,0.5-0.8,1-1.1,1.5c-0.3,0.6-0.4,1-0.4,1.4c0,0.1,0,0.2,0.1,0.3s0.2,0.2,0.3,0.2c0.3,0,0.6-0.2,0.9-0.6
		c0.1-0.2,0.3-0.4,0.3-0.5S27.3,49.2,27.3,49.2z"/>
	<path d="M35.9,48.6c-0.2,0.5-0.3,0.8-0.4,1.1s-0.1,0.5-0.1,0.6s0.1,0.2,0.2,0.2c0.2,0,0.5-0.2,0.8-0.6c0.2-0.2,0.4-0.5,0.7-1
		c0.1-0.2,0.3-0.3,0.4-0.3c0.2,0,0.2,0.1,0.2,0.2c0,0.3-0.3,0.8-0.9,1.5c-0.6,0.8-1.2,1.2-1.7,1.2c-0.2,0-0.4-0.1-0.5-0.3
		c-0.1-0.1-0.1-0.3-0.1-0.5c0-0.3,0.1-0.8,0.3-1.4s0.5-1.3,0.9-2.1c1-2.1,2-3.9,3.1-5.2c0.8-1.1,1.5-1.7,2.1-1.7
		c0.2,0,0.3,0.1,0.4,0.2c0.1,0.1,0.2,0.3,0.2,0.5c0,0.8-0.7,2.2-2.2,4.1c-0.7,0.8-1.4,1.7-2.4,2.5C36.6,47.9,36.3,48.2,35.9,48.6z
		 M36.5,47.2c1.2-1,2.3-2.4,3.3-4c0.5-0.8,0.7-1.4,0.7-1.6c0-0.1-0.1-0.2-0.2-0.2c-0.3,0-0.9,0.6-1.8,1.9
		C37.9,44.4,37.2,45.7,36.5,47.2z"/>
	<path d="M46.1,50.2c-0.3,0.4-0.5,0.6-0.7,0.8c-0.3,0.4-0.7,0.6-1,0.6s-0.5-0.1-0.7-0.4c-0.1-0.2-0.2-0.4-0.2-0.7
		c0-0.8,0.3-1.6,1-2.6c0.3-0.5,0.6-0.8,0.9-1c0.2-0.2,0.4-0.3,0.6-0.3c0.1,0,0.2,0,0.2,0.1c0.1,0.1,0.1,0.1,0.1,0.2
		c0,0.1-0.1,0.3-0.3,0.5c-0.5,0.6-0.9,1.1-1.1,1.6c-0.3,0.6-0.4,1-0.4,1.3c0,0.1,0,0.1,0.1,0.2c0,0,0.1,0.1,0.2,0.1
		c0.3,0,0.7-0.4,1.2-1.3c0.3-0.4,0.5-0.9,0.7-1.5c0.1-0.3,0.2-0.6,0.4-0.8s0.3-0.3,0.5-0.3c0.1,0,0.2,0,0.2,0.1
		c0.1,0.1,0.1,0.2,0.1,0.3c0,0.2-0.2,0.7-0.6,1.4c-0.3,0.5-0.4,0.9-0.4,1.3c0,0.4,0.1,0.7,0.3,0.9c0.1,0.1,0.2,0.2,0.5,0.3
		c0.1,0.1,0.2,0.2,0.2,0.4c0,0.1,0,0.2-0.1,0.3s-0.2,0.1-0.3,0.1c-0.3,0-0.6-0.1-0.8-0.4c-0.2-0.2-0.4-0.5-0.4-0.9
		C46.2,50.6,46.1,50.4,46.1,50.2z"/>
	<path d="M57,45.8c-0.4,0.6-0.7,1.3-1.1,2c-0.5,1-0.7,1.8-0.7,2.3c0,0.1,0,0.3,0.1,0.3c0.1,0.1,0.2,0.1,0.3,0.1
		c0.3,0,0.6-0.3,1.1-0.8c0.3-0.3,0.5-0.7,0.7-1c0.1-0.2,0.2-0.3,0.4-0.3c0.1,0,0.1,0,0.2,0.1c0,0.1,0.1,0.1,0.1,0.2
		c0,0.2-0.3,0.7-0.9,1.5c-0.7,0.9-1.3,1.4-1.9,1.4c-0.3,0-0.5-0.1-0.7-0.4c-0.1-0.2-0.2-0.4-0.2-0.7c0-0.7,0.2-1.5,0.6-2.5
		c0.1-0.2,0.4-0.8,0.8-1.7c-0.2,0-0.3,0.1-0.4,0.1c-0.1,0-0.2,0-0.3-0.1s-0.2-0.2-0.2-0.3s0.1-0.3,0.3-0.4c0,0,0.3-0.1,0.7-0.1
		c0.1,0,0.3-0.1,0.6-0.2c0.2-0.4,0.5-0.9,1-1.5c0.3-0.4,0.4-0.6,0.5-0.7c0.1-0.1,0.3-0.2,0.4-0.2c0.1,0,0.2,0,0.2,0.1
		c0.1,0.1,0.1,0.2,0.1,0.2c0,0.2-0.2,0.5-0.5,0.9c-0.2,0.3-0.4,0.5-0.5,0.7c0.7-0.2,1.1-0.3,1.4-0.3c0.3,0,0.5,0.1,0.5,0.4
		c0,0.1-0.1,0.2-0.2,0.3c-0.1,0-0.2,0.1-0.5,0.1c-0.1,0-0.5,0.1-1.3,0.3C57.4,45.7,57.2,45.8,57,45.8z"/>
	<path d="M65.9,46.2c0.1,0,0.2,0,0.2,0.1s0.1,0.1,0.1,0.2c0,0.1-0.1,0.3-0.3,0.5c-0.6,0.9-1,1.7-1.3,2.3s-0.5,1.3-0.7,1.9
		c-0.1,0.3-0.2,0.4-0.4,0.4c-0.1,0-0.2,0-0.3-0.1s-0.1-0.2-0.1-0.2c0-0.2,0.2-0.8,0.6-1.8c0.3-0.8,0.8-1.7,1.4-2.6
		c0.2-0.3,0.4-0.5,0.5-0.6C65.6,46.3,65.7,46.2,65.9,46.2z M67.5,43c0.3,0,0.4,0.1,0.4,0.4c0,0.2-0.1,0.5-0.4,0.8
		c-0.2,0.3-0.5,0.4-0.7,0.4c-0.1,0-0.2,0-0.3-0.1c-0.1-0.1-0.1-0.2-0.1-0.3c0-0.3,0.2-0.6,0.5-0.9C67.1,43.1,67.3,43,67.5,43z"/>
	<path d="M74.7,45.8c0.5,0,0.7,0.3,0.7,0.9c0,0.8-0.4,1.8-1.1,3c-0.8,1.3-1.5,1.9-2.3,1.9c-0.3,0-0.6-0.2-0.7-0.5
		c-0.1-0.2-0.1-0.3-0.1-0.6c0-0.8,0.3-1.6,0.8-2.4c0.5-0.8,1-1.4,1.7-1.9C74.1,46,74.4,45.8,74.7,45.8z M73.8,49.2
		c-0.1-0.1-0.2-0.2-0.2-0.3c0,0,0.1-0.2,0.3-0.4c0.5-0.6,0.8-1.1,0.8-1.4V47c0-0.1-0.1-0.1-0.2-0.1c-0.2,0-0.5,0.2-0.8,0.5
		c-0.5,0.5-0.8,1-1.1,1.5c-0.3,0.6-0.4,1-0.4,1.4c0,0.1,0,0.2,0.1,0.3s0.2,0.2,0.3,0.2c0.3,0,0.6-0.2,0.9-0.6
		c0.1-0.2,0.3-0.4,0.3-0.5S73.8,49.2,73.8,49.2z"/>
	<path d="M82.5,48.5c0.1-0.1,0.1-0.1,0.2-0.2c1.2-1.2,2-1.8,2.5-1.8c0.2,0,0.3,0.1,0.3,0.4c0,0.2-0.1,0.4-0.3,0.6
		c-1.1,1.3-1.7,2.5-1.7,3.5c0,0.3,0.1,0.6,0.3,0.9c0.1,0.1,0.1,0.2,0.1,0.3s0,0.1-0.1,0.2c-0.1,0.1-0.2,0.1-0.3,0.1
		c-0.2,0-0.4-0.2-0.6-0.5s-0.2-0.6-0.2-1c0-0.8,0.3-1.7,0.9-2.6c-0.8,0.5-1.5,1.4-2.2,2.7c-0.2,0.3-0.4,0.5-0.6,0.5
		c-0.1,0-0.2,0-0.2-0.1c-0.1-0.1-0.1-0.2-0.1-0.3c0-0.3,0.4-1.1,1.1-2.5c0.4-0.7,0.7-1.3,0.9-1.6c0.2-0.3,0.4-0.5,0.6-0.5
		c0.1,0,0.1,0,0.2,0.1s0.1,0.2,0.1,0.3s-0.1,0.3-0.3,0.6S82.7,48.2,82.5,48.5z"/>
	<path d="M95,45.7c0.4,0,0.6,0.1,0.8,0.2s0.3,0.3,0.3,0.6s-0.1,0.7-0.4,1c-0.2,0.3-0.6,0.6-1.1,0.7c-0.3,0.1-0.5,0.1-0.7,0.1
		s-0.4-0.1-0.4-0.3c0-0.1,0.1-0.3,0.2-0.3c0,0,0.2-0.1,0.6-0.1c0.2,0,0.4-0.1,0.6-0.3c0.2-0.1,0.2-0.3,0.2-0.4c0-0.1,0-0.2-0.1-0.3
		s-0.2-0.1-0.3-0.1c-0.3,0-0.7,0.1-1.1,0.4c-0.5,0.3-0.7,0.7-0.7,1.1c0,0.3,0.2,0.7,0.5,1.1c0.3,0.5,0.5,0.9,0.5,1.3
		c0,0.5-0.2,0.9-0.7,1.2c-0.3,0.2-0.6,0.3-1,0.3c-0.6,0-1-0.2-1.3-0.6c-0.2-0.3-0.3-0.6-0.3-1c0-0.5,0.1-0.8,0.4-1.2
		c0.2-0.2,0.3-0.3,0.5-0.3c0.1,0,0.2,0.1,0.2,0.2c0,0,0,0.1-0.1,0.2c-0.1,0.3-0.2,0.5-0.2,0.9c0,0.3,0.1,0.5,0.3,0.7
		c0.2,0.2,0.4,0.3,0.6,0.3s0.4-0.1,0.5-0.2c0.1-0.1,0.2-0.3,0.2-0.5s-0.1-0.6-0.4-1c-0.4-0.5-0.6-1-0.6-1.5c0-0.6,0.3-1.1,1-1.6
		C93.6,45.9,94.3,45.7,95,45.7z"/>
</g>
<g>
	<path d="M30.2,4.5c-0.4,0-1.1,0.2-2.1,0.7c-1.7,0.8-3,1.4-4.1,2c-2.6,1.5-4.3,2.4-4.9,2.8c-2,1.3-3.4,2.1-4.1,2.4
		c3-5.1,4.4-8.4,4.4-9.8c0-0.3-0.1-0.6-0.4-0.8c-0.2-0.1-0.4-0.2-0.6-0.2c-0.4,0-0.8,0.2-1,0.5C17.3,2.4,17,3,16.7,3.9
		c-0.9,2.6-3.2,6.7-6.7,12.3c-1.6,2.5-2.7,4.2-3.1,5.1c-1.2,2.3-2.2,4.3-3,5.9C2.6,30,2,32,2,33.2c0,0.4,0.1,0.7,0.2,0.9
		c0.2,0.4,0.6,0.6,1,0.6c0.7,0,1.1-0.5,1.3-1.4c0.6-2.9,2.3-6.9,5.1-11.8c2.4-3.9,4-6.6,4.9-8.2C14.4,14,14,15.9,13.3,19s-1,6-1,8.7
		c0,1.4,0.1,2.5,0.4,3.4c0.4,1.4,1.3,2.2,2.7,2.2c1.6,0,3.4-1.4,5.3-4.3c1.4-2,2-3.3,2-3.9c0-0.4-0.2-0.7-0.5-0.7s-0.7,0.3-1.1,1
		c-2.5,3.5-4.1,5.2-4.9,5.2c-0.4,0-0.7-0.2-0.9-0.6S15,28.9,15,28.1c0-2.4,0.3-5.3,0.8-8.7c0.2-1.6,0.6-3.3,1.1-4.9
		c3.3-2.8,7.5-5.2,12.5-7.1c0.6-0.4,1-0.6,1.2-0.7c0.4-0.3,0.6-0.6,0.6-1.1c0-0.4-0.1-0.7-0.4-0.9C30.7,4.6,30.4,4.5,30.2,4.5z"/>
	<path d="M87.9,3.1c0-0.3-0.1-0.6-0.3-0.9c-0.2-0.3-0.5-0.5-0.8-0.5c-0.5,0-1.1,0.5-2,1.5C83.8,4.4,82.5,6,81,8
		c-1.5,2.1-3.9,4.8-7,8.1c-1.1,1.2-2.5,2.4-4.2,3.7c-1.4,1.1-2.5,1.7-3,1.7c-0.3,0-0.6-0.1-0.8-0.4c0,0,0-0.3,0-0.5
		c0-1.1,0.7-2.9,2-5.5c1.2-2.4,2.9-4.6,4.9-6.6c1.3-1.3,2.4-2.2,3.3-2.7C76.7,5.5,77,5.2,77.3,5c0.3-0.3,0.5-0.6,0.5-1.1
		c0-0.3-0.1-0.5-0.3-0.7C77.3,3.1,77.1,3,76.8,3c-1,0-2.8,1.2-5.3,3.7s-4.5,5-5.9,7.6c-1.6,2.9-2.4,5.4-2.4,7.3
		c0,0.6,0.1,1.1,0.4,1.6c0.5,0.9,1.1,1.4,2,1.4s1.7-0.3,2.6-0.9c0.8-0.5,1.7-1.3,2.7-2.2c1.8-1.6,3.3-3,4.5-4.2
		c-0.5,0.9-1.5,2.5-2.9,4.8c-1.7,2.8-3.1,5.5-4.2,8.3c-1,2.4-1.5,3.9-1.5,4.7c0,0.7,0.4,1.1,1.1,1.1c0.4,0,0.7-0.2,1.1-0.5
		s0.6-1.1,1-2.2c0.4-1.3,1.4-3.8,3.2-7.6c1.5-3.3,3.3-6.5,5.4-9.6c1.4-2,4.2-5.8,8.4-11.4C87.6,4.3,87.9,3.6,87.9,3.1z"/>
	<path d="M110.7,3.2c-0.6-0.5-1.4-0.7-2.3-0.7c-1.4,0-2.9,0.3-4.4,1c-1.8,0.8-3.5,1.9-5.1,3.2c-2.9,2.5-4.3,5.3-4.3,8.2
		c0,1.2,0.4,2.5,1.1,3.8c0.6,1.2,1.4,2.4,2.4,3.8c0.6,0.9,1.1,1.7,1.4,2.2c0.3,0.6,0.4,1.2,0.4,1.9c0,1.2-0.5,2.1-1.5,2.9
		c-1.5,1.2-3.4,1.8-5.4,1.8c-1,0-1.9-0.2-2.6-0.7c-0.8-0.6-1.2-1.3-1.2-2.3c0-1.2,0.7-2.1,2-2.6c0.8-0.3,1.2-0.7,1.2-1.2
		c0-0.7-0.4-1-1.3-1c-0.3,0-0.8,0.1-1.3,0.3c-0.8,0.3-1.4,0.7-1.9,1.3c-0.9,0.9-1.4,2.1-1.4,3.4c0,1.2,0.5,2.3,1.4,3.2
		c1.3,1.2,3,1.9,5.2,1.9c2.3,0,4.3-0.6,6.1-1.8c2.1-1.4,3.2-3.1,3.2-4.9c0-1-0.3-2-0.9-3.1c-0.5-0.9-1.1-1.9-1.8-3
		c-0.8-1.1-1.4-2.1-1.9-3c-0.6-1.1-0.9-2.2-0.9-3.2c0-1.4,0.5-2.9,1.6-4.4c1.2-1.8,3-3.2,5.2-4.3c1.6-0.8,3-1.2,4.1-1.2
		c0.4,0,0.8,0.1,1.1,0.3c0.4,0.3,0.6,0.6,0.6,1.1c0,1.2-0.9,2.5-2.8,4.1c-1.5,1.2-3.1,2.2-5,2.8c-1,0.4-1.5,0.8-1.5,1.4
		c0,0.2,0.1,0.5,0.3,0.7c0.3,0.3,0.6,0.4,1,0.4c0.5,0,1.4-0.3,2.4-0.8c2.1-1.1,4-2.5,5.6-4.2c1.7-1.8,2.5-3.5,2.5-5.1
		C111.9,4.6,111.5,3.8,110.7,3.2z"/>
	<path d="M56.6,4.1c-0.9-1-2.3-1.5-4.1-1.5c-0.6,0-1.2,0.1-1.9,0.2S49.2,3,48.5,3.2c0,0-1.8,0.6-2.9,1.2c-0.1,0-0.2,0.1-0.3,0.1
		c-0.6,0.3-1.2,0.6-1.9,0.9c-1,0.6-1.6,1.3-1.6,2.1c0,0.2,0.1,0.4,0.2,0.6c0.1,0.2,0.3,0.3,0.5,0.3s0.4-0.1,0.6-0.2
		c0.2-0.1,0.6-0.3,1-0.5l3.1-1.3C48,6,48.6,5.8,49,5.6C50.1,5.2,51.1,5,52.2,5c1.2,0,2.1,0.2,2.6,0.7s0.9,1.2,0.9,2.1
		s-0.2,1.8-0.7,2.6c-0.8,1.3-1.8,2.5-3,3.5c-2.8,2.3-5.8,3.4-9.1,3.4c-0.3,0-0.7,0-1.3,0l0,0c0,0-1.9-0.3-2.4-0.5
		c-0.3-0.2-0.6-0.2-0.8-0.2s-0.5,0.1-0.7,0.2c-0.4,0.3-0.6,0.7-0.6,1.3c0,0.4,0.1,0.9,0.3,1.6c-1.7,2.9-3,5.5-4,7.8
		c-1.4,3.2-2.1,5.1-2.1,5.9c0,0.2,0.1,0.5,0.3,0.7c0.2,0.2,0.5,0.4,0.9,0.4c0.5,0,0.8-0.1,1-0.3s0.5-0.9,1-2.3
		c0.8-2.4,2.2-5.5,4.3-9.5c1.8,4.5,3.4,7.7,4.6,9.7c0.3,0.6,0.6,1.1,0.8,1.5c0.4,0.8,0.9,1.2,1.2,1.2c0.2,0,0.6-0.1,0.9-0.4
		c0.3-0.3,0.5-0.5,0.5-0.8s-0.1-0.7-0.4-1c-0.9-1.4-1.5-2.5-1.9-3.3c-1.4-2.9-2.4-5.1-3.1-6.7c-0.4-1-0.8-1.9-1-2.9
		c0.7,0,1.3,0.1,1.6,0.1c2.1,0,4.2-0.4,6.4-1.2c2.8-1,5.1-2.5,6.8-4.4c1.8-2,2.7-4.2,2.7-6.5C57.9,6.3,57.5,5.1,56.6,4.1z"/>
</g>
</svg>
